<svg width="28" height="22" viewBox="0 0 28 22" fill="none" xmlns="http://www.w3.org/2000/svg">
<mask id="mask0_897_928" style="mask-type:luminance" maskUnits="userSpaceOnUse" x="0" y="0" width="16" height="15">
<path d="M3.88028 14.0524L1.06601 11.7057L0 8.36123L0.533005 4.45932L2.66503 1.67224L5.33005 0H8.52808L11.1931 0.557415L12.7921 2.22966L15.0734 5.69121L11.8754 7.92087H8.67733L7.07831 9.59311V11.8228L4.94629 12.9376L3.88028 14.0524Z" fill="white"/>
</mask>
<g mask="url(#mask0_897_928)">
<path d="M13.1172 9.41472C12.3745 9.41986 11.6382 9.27197 10.9502 8.9795C10.2622 8.68702 9.636 8.25569 9.1074 7.71013C8.5788 7.16457 8.15812 6.51546 7.8694 5.79987C7.58068 5.08429 7.42957 4.31623 7.42468 3.53957C7.42689 3.04275 7.48958 2.54825 7.61124 2.06799C6.59811 2.19954 5.63841 2.61732 4.83527 3.27643C4.03213 3.93555 3.41591 4.81108 3.05283 5.80893C2.68975 6.80679 2.59355 7.88926 2.77455 8.94C2.95555 9.99075 3.40691 10.9701 4.08014 11.7727C4.75336 12.5753 5.62299 13.1709 6.59558 13.4955C7.56817 13.82 8.60694 13.8613 9.60028 13.6148C10.5936 13.3684 11.5039 12.8435 12.2335 12.0966C12.963 11.3497 13.4841 10.4091 13.7408 9.3757C13.5337 9.39981 13.3256 9.41283 13.1172 9.41472Z" stroke="#72B9D5" stroke-width="2" stroke-linecap="round" stroke-linejoin="round"/>
</g>
<path d="M22.269 12.1015H22.0984C22.4119 10.7499 22.2544 9.32565 21.6542 8.08451C21.0541 6.84338 20.0505 5.8666 18.8238 5.32953C17.5971 4.79246 16.2274 4.73027 14.9608 5.15412C13.6941 5.57797 12.6134 6.4601 11.9127 7.64216C11.347 7.2914 10.7027 7.10324 10.0451 7.09674C9.38747 7.09024 8.7399 7.26563 8.16798 7.60515C7.59605 7.94467 7.1201 8.43624 6.78834 9.03008C6.45658 9.62391 6.2808 10.2989 6.27881 10.9867C6.28045 11.1996 6.29827 11.4121 6.33211 11.6221C5.35914 11.8214 4.49171 12.3918 3.89825 13.2224C3.3048 14.053 3.02766 15.0846 3.12066 16.1169C3.21366 17.1492 3.67015 18.1085 4.4015 18.8086C5.13285 19.5086 6.08687 19.8995 7.07831 19.9053C7.16707 19.9108 7.25606 19.9108 7.34482 19.9053H22.269C23.2585 19.9053 24.2075 19.4942 24.9072 18.7625C25.6069 18.0307 26 17.0382 26 16.0034C26 14.9685 25.6069 13.9761 24.9072 13.2443C24.2075 12.5126 23.2585 12.1015 22.269 12.1015Z" stroke="#E5E7EB" stroke-width="3" stroke-linejoin="round"/>
</svg>
